<svg version="1.0" xmlns="http://www.w3.org/2000/svg" width="922.000000pt" height="230.000000pt" viewBox="0 0 922.000000 230.000000" preserveAspectRatio="xMidYMid meet">
    <g transform="translate(0.000000,230.000000) scale(0.100000,-0.100000)" fill="#4f46e5" stroke="none">
        <path d="M1830 1180 c0 -589 2 -670 15 -670 13 0 15 81 15 670 0 589 -2 670
-15 670 -13 0 -15 -81 -15 -670z" />
        <path d="M775 1641 c-132 -38 -229 -110 -305 -224 -56 -83 -80 -168 -80 -281
0 -157 41 -257 149 -369 95 -99 218 -157 334 -157 72 0 56 15 -30 28 -165 26
-307 130 -377 275 -96 198 -60 411 93 567 49 49 87 77 146 106 75 36 87 39
187 42 82 3 119 0 160 -13 163 -53 283 -170 338 -331 24 -69 27 -203 6 -280
-35 -131 -142 -259 -267 -319 -114 -54 -109 -59 -109 105 l0 140 158 1 c150 0
156 1 132 17 -14 9 -42 33 -62 55 l-38 38 0 104 0 105 -30 0 c-20 0 -30 -5
-30 -15 0 -8 9 -15 20 -15 19 0 20 -7 20 -97 0 -96 0 -98 32 -130 l32 -33
-132 0 -132 0 0 -176 0 -176 33 7 c238 52 417 271 417 513 0 246 -167 461
-401 517 -84 19 -189 18 -264 -4z" />
        <path d="M3455 1554 c-59 -14 -144 -49 -173 -71 -63 -47 -91 -168 -58 -247 34
-81 106 -118 260 -135 125 -14 163 -44 116 -91 -16 -16 -33 -20 -84 -20 -93 0
-114 10 -118 57 l-3 38 -78 3 c-50 2 -84 -1 -93 -9 -10 -8 -14 -35 -14 -94 l0
-83 36 -27 c63 -48 149 -67 288 -63 128 3 162 13 234 66 67 49 92 173 53 251
-44 85 -123 124 -283 141 -66 6 -85 12 -100 30 -33 41 11 80 92 80 53 0 70 -8
70 -35 0 -45 23 -55 108 -48 42 3 80 11 84 17 4 6 8 43 8 82 l0 71 -39 26
c-62 41 -241 77 -306 61z" />
        <path d="M6800 1542 c-171 -57 -255 -175 -254 -357 1 -145 50 -244 154 -310
177 -111 464 -77 574 68 55 72 70 123 70 247 1 107 -1 119 -27 168 -42 80 -98
135 -170 168 -55 25 -75 29 -177 31 -90 2 -127 -1 -170 -15z m195 -162 c33 0
94 -56 116 -105 37 -80 19 -169 -48 -237 -108 -111 -303 -13 -303 152 0 80 61
171 123 185 12 2 31 6 42 8 11 3 26 3 33 1 8 -2 24 -4 37 -4z" />
        <path d="M7712 1550 c-112 -24 -221 -102 -264 -188 -21 -42 -23 -61 -23 -182
l0 -136 42 -65 c63 -96 130 -139 248 -160 165 -29 342 24 408 121 14 20 17 49
17 147 0 111 -2 123 -19 133 -11 6 -89 10 -180 10 -148 0 -161 -1 -171 -19
-13 -25 -13 -82 0 -116 10 -26 11 -27 93 -23 78 3 82 2 85 -19 7 -47 -130 -72
-209 -39 -82 34 -120 122 -98 225 20 93 84 144 179 144 82 0 110 -14 110 -57
0 -32 3 -36 33 -41 17 -3 59 -5 92 -3 l60 3 3 81 3 82 -40 31 c-68 54 -123 73
-230 77 -53 2 -115 -1 -139 -6z" />
        <path d="M8388 1537 c-86 -31 -121 -60 -147 -119 -40 -90 -18 -199 50 -251 41
-31 127 -57 188 -57 63 -1 145 -30 149 -53 2 -10 -4 -27 -14 -38 -14 -16 -31
-19 -95 -19 -101 0 -109 3 -109 50 0 47 -9 50 -110 42 l-75 -7 -3 -90 -2 -90
35 -24 c63 -42 170 -71 265 -71 207 0 330 89 330 237 -1 134 -100 210 -295
228 -86 9 -117 26 -113 63 2 21 11 30 42 40 55 18 126 7 126 -20 0 -49 15 -58
105 -58 98 0 98 0 93 110 -3 63 -4 65 -43 90 -57 37 -107 50 -215 56 -83 4
-103 2 -162 -19z" />
        <path d="M2905 1542 l-150 -3 -2 -84 -2 -85 45 0 44 0 0 -39 c0 -43 -23 -76
-47 -67 -8 3 -55 6 -104 6 l-89 0 0 50 0 50 40 6 41 7 -3 76 -3 76 -187 3
-188 2 0 -78 0 -78 43 -10 42 -9 1 -187 1 -188 -44 0 -43 0 0 -85 0 -85 193 0
193 0 -3 68 c-1 37 -3 75 -3 85 0 13 -9 17 -40 17 l-40 0 0 55 0 55 118 0 117
0 3 -55 3 -55 -40 0 c-48 0 -52 -9 -49 -103 l3 -67 190 0 190 0 0 85 1 85 -43
0 -43 0 0 190 0 190 45 0 45 0 -3 84 c-2 90 -8 99 -62 94 -11 -2 -87 -4 -170
-6z" />
        <path d="M5075 1535 c-10 -7 -12 -29 -8 -82 l6 -73 36 0 36 0 -1 -103 c0 -56
-1 -144 -2 -194 l-2 -93 -34 0 c-38 0 -44 -13 -45 -95 -1 -76 -17 -72 244 -74
270 -2 343 7 410 51 101 67 116 205 32 304 -24 28 -25 33 -11 45 28 23 44 67
44 124 0 62 -15 97 -57 136 -55 52 -95 58 -376 62 -170 2 -263 -1 -272 -8z
m475 -175 c24 -24 25 -39 6 -66 -12 -16 -27 -19 -107 -19 -104 0 -107 2 -94
71 l6 34 84 0 c72 0 88 -3 105 -20z m0 -250 c56 -30 44 -102 -19 -121 -20 -6
-65 -9 -101 -7 l-65 3 -3 68 -3 67 86 0 c48 0 95 -5 105 -10z" />
        <path d="M5860 1542 c-6 -2 -10 -39 -10 -83 l0 -79 40 0 c22 0 40 -4 41 -10 0
-5 0 -82 0 -170 0 -88 0 -171 0 -185 -1 -22 -6 -25 -35 -25 -26 0 -35 -5 -40
-22 -10 -40 -7 -125 7 -135 10 -8 543 -12 630 -5 16 2 17 14 15 145 l-3 142
-91 3 c-101 3 -104 2 -104 -74 0 -37 -15 -44 -102 -44 l-58 0 0 190 0 190 39
0 38 0 6 71 c3 38 4 76 1 83 -4 11 -44 13 -185 12 -98 0 -183 -2 -189 -4z" />
        <path d="M3877 1533 c-3 -4 -2 -41 0 -80 5 -58 9 -73 22 -74 56 -4 53 3 54
-104 0 -55 0 -142 -1 -192 l-2 -93 -30 0 c-37 0 -50 -23 -50 -89 0 -87 -20
-81 266 -81 145 0 275 5 304 11 61 13 128 61 152 109 36 72 16 183 -45 241
-14 14 -18 23 -10 26 29 11 55 73 54 132 0 89 -34 141 -116 178 -35 15 -77 18
-316 21 -153 2 -279 0 -282 -5z m460 -162 c7 0 20 -12 29 -26 15 -23 15 -27 0
-50 -16 -24 -21 -25 -111 -25 -105 0 -105 -1 -89 76 l6 29 76 -1 c42 -1 83 -2
89 -3z m17 -265 c54 -22 57 -89 6 -116 -10 -5 -57 -10 -104 -10 l-86 0 0 70 0
70 75 0 c42 0 90 -6 109 -14z" />
        <path d="M660 1243 l0 -107 -56 -53 -56 -53 296 0 296 0 0 160 0 160 -240 0
-240 0 0 -107z m450 -58 l0 -135 -246 0 -245 0 30 37 c30 36 31 41 31 135 l0
98 215 0 215 0 0 -135z" />
    </g>
</svg>