<svg id="visual" viewBox="0 0 900 600" width="900" height="600" xmlns="http://www.w3.org/2000/svg" xmlns:xlink="http://www.w3.org/1999/xlink" version="1.1"><rect x="0" y="0" width="900" height="600" fill="#fff"></rect><path d="M0 99L18.8 102.5C37.7 106 75.3 113 112.8 109C150.3 105 187.7 90 225.2 84.5C262.7 79 300.3 83 337.8 84.3C375.3 85.7 412.7 84.3 450.2 81C487.7 77.7 525.3 72.3 562.8 69C600.3 65.7 637.7 64.3 675.2 70.8C712.7 77.3 750.3 91.7 787.8 92.8C825.3 94 862.7 82 881.3 76L900 70L900 0L881.3 0C862.7 0 825.3 0 787.8 0C750.3 0 712.7 0 675.2 0C637.7 0 600.3 0 562.8 0C525.3 0 487.7 0 450.2 0C412.7 0 375.3 0 337.8 0C300.3 0 262.7 0 225.2 0C187.7 0 150.3 0 112.8 0C75.3 0 37.7 0 18.8 0L0 0Z" fill="#6365f1" stroke-linecap="round" stroke-linejoin="miter"></path></svg>